REM DIRINDEX 1\2\5,1\2\6,1\2\7,1\2\8,1\3\9,1\3\10,1\3\11,1\4\12,1\4\13,1\4\14,1\4\15,1\4\16
REM DIRNAME folder01,folder02,folder03,folder04,folder05,folder06,folder07,folder08,folder09,folder10,folder11,folder12,folder13,folder14,folder15,folder16
TITLE ""
FILE "1200_2_sec03_1161_1180.mp3" MP3
  TRACK 01 AUDIO
    TITLE "0:"
    INDEX 01 00:00:00
  TRACK 02 AUDIO
    TITLE "10:cjc034_02394"
    INDEX 01 00:00:13
  TRACK 03 AUDIO
    TITLE "0:"
    INDEX 01 00:01:62
  TRACK 04 AUDIO
    TITLE "9:cjc034_02395"
    INDEX 01 00:01:66
  TRACK 05 AUDIO
    TITLE "0:"
    INDEX 01 00:05:05
  TRACK 06 AUDIO
    TITLE "10:cjc034_02396"
    INDEX 01 00:05:63
  TRACK 07 AUDIO
    TITLE "0:"
    INDEX 01 00:07:17
  TRACK 08 AUDIO
    TITLE "9:cjc034_02397"
    INDEX 01 00:07:21
  TRACK 09 AUDIO
    TITLE "0:"
    INDEX 01 00:08:40
  TRACK 10 AUDIO
    TITLE "10:cjc034_02398"
    INDEX 01 00:09:20
  TRACK 11 AUDIO
    TITLE "0:"
    INDEX 01 00:10:25
  TRACK 12 AUDIO
    TITLE "9:cjc034_02399"
    INDEX 01 00:10:27
  TRACK 13 AUDIO
    TITLE "0:"
    INDEX 01 00:12:07
  TRACK 14 AUDIO
    TITLE "10:cjc034_02400"
    INDEX 01 00:12:67
  TRACK 15 AUDIO
    TITLE "0:"
    INDEX 01 00:14:29
  TRACK 16 AUDIO
    TITLE "9:cjc034_02401"
    INDEX 01 00:14:33
  TRACK 17 AUDIO
    TITLE "0:"
    INDEX 01 00:15:52
  TRACK 18 AUDIO
    TITLE "10:cjc034_02402"
    INDEX 01 00:16:36
  TRACK 19 AUDIO
    TITLE "0:"
    INDEX 01 00:18:07
  TRACK 20 AUDIO
    TITLE "9:cjc034_02403"
    INDEX 01 00:18:11
  TRACK 21 AUDIO
    TITLE "0:"
    INDEX 01 00:19:24
  TRACK 22 AUDIO
    TITLE "10:cjc034_02404"
    INDEX 01 00:20:04
  TRACK 23 AUDIO
    TITLE "0:"
    INDEX 01 00:22:42
  TRACK 24 AUDIO
    TITLE "9:cjc034_02405"
    INDEX 01 00:22:44
  TRACK 25 AUDIO
    TITLE "0:"
    INDEX 01 00:24:16
  TRACK 26 AUDIO
    TITLE "10:cjc034_02406"
    INDEX 01 00:24:72
  TRACK 27 AUDIO
    TITLE "0:"
    INDEX 01 00:26:38
  TRACK 28 AUDIO
    TITLE "9:cjc034_02407"
    INDEX 01 00:26:42
  TRACK 29 AUDIO
    TITLE "0:"
    INDEX 01 00:27:59
  TRACK 30 AUDIO
    TITLE "10:cjc034_02408"
    INDEX 01 00:28:39
  TRACK 31 AUDIO
    TITLE "0:"
    INDEX 01 00:30:01
  TRACK 32 AUDIO
    TITLE "9:cjc034_02409"
    INDEX 01 00:30:12
  TRACK 33 AUDIO
    TITLE "0:"
    INDEX 01 00:31:14
  TRACK 34 AUDIO
    TITLE "10:cjc034_02410"
    INDEX 01 00:32:00
  TRACK 35 AUDIO
    TITLE "0:"
    INDEX 01 00:34:42
  TRACK 36 AUDIO
    TITLE "9:cjc034_02411"
    INDEX 01 00:34:45
  TRACK 37 AUDIO
    TITLE "0:"
    INDEX 01 00:36:07
  TRACK 38 AUDIO
    TITLE "10:cjc034_02412"
    INDEX 01 00:36:62
  TRACK 39 AUDIO
    TITLE "0:"
    INDEX 01 00:38:26
  TRACK 40 AUDIO
    TITLE "9:cjc034_02413"
    INDEX 01 00:38:37
  TRACK 41 AUDIO
    TITLE "0:"
    INDEX 01 00:39:58
  TRACK 42 AUDIO
    TITLE "10:cjc034_02414"
    INDEX 01 00:40:40
  TRACK 43 AUDIO
    TITLE "0:"
    INDEX 01 00:43:19
  TRACK 44 AUDIO
    TITLE "9:cjc034_02415"
    INDEX 01 00:43:25
  TRACK 45 AUDIO
    TITLE "0:"
    INDEX 01 00:45:71
  TRACK 46 AUDIO
    TITLE "10:cjc034_02416"
    INDEX 01 00:46:56
  TRACK 47 AUDIO
    TITLE "0:"
    INDEX 01 00:49:45
  TRACK 48 AUDIO
    TITLE "9:cjc034_02417"
    INDEX 01 00:49:47
  TRACK 49 AUDIO
    TITLE "0:"
    INDEX 01 00:51:05
  TRACK 50 AUDIO
    TITLE "10:cjc034_02418"
    INDEX 01 00:51:63
  TRACK 51 AUDIO
    TITLE "0:"
    INDEX 01 00:54:21
  TRACK 52 AUDIO
    TITLE "9:cjc034_02419"
    INDEX 01 00:54:29
  TRACK 53 AUDIO
    TITLE "0:"
    INDEX 01 00:55:61
  TRACK 54 AUDIO
    TITLE "10:cjc034_02420"
    INDEX 01 00:56:43
  TRACK 55 AUDIO
    TITLE "0:"
    INDEX 01 01:00:08
  TRACK 56 AUDIO
    TITLE "9:cjc034_02421"
    INDEX 01 01:00:12
  TRACK 57 AUDIO
    TITLE "0:"
    INDEX 01 01:02:12
  TRACK 58 AUDIO
    TITLE "10:cjc034_02422"
    INDEX 01 01:02:67
  TRACK 59 AUDIO
    TITLE "0:"
    INDEX 01 01:05:11
  TRACK 60 AUDIO
    TITLE "9:cjc034_02423"
    INDEX 01 01:05:13
  TRACK 61 AUDIO
    TITLE "0:"
    INDEX 01 01:06:43
  TRACK 62 AUDIO
    TITLE "10:cjc034_02424"
    INDEX 01 01:07:25
  TRACK 63 AUDIO
    TITLE "0:"
    INDEX 01 01:08:74
  TRACK 64 AUDIO
    TITLE "9:cjc034_02425"
    INDEX 01 01:09:05
  TRACK 65 AUDIO
    TITLE "0:"
    INDEX 01 01:12:68
  TRACK 66 AUDIO
    TITLE "10:cjc034_02426"
    INDEX 01 01:13:51
  TRACK 67 AUDIO
    TITLE "0:"
    INDEX 01 01:15:05
  TRACK 68 AUDIO
    TITLE "9:cjc034_02427"
    INDEX 01 01:15:09
  TRACK 69 AUDIO
    TITLE "0:"
    INDEX 01 01:16:12
  TRACK 70 AUDIO
    TITLE "10:cjc034_02428"
    INDEX 01 01:16:69
  TRACK 71 AUDIO
    TITLE "0:"
    INDEX 01 01:19:03
  TRACK 72 AUDIO
    TITLE "9:cjc034_02429"
    INDEX 01 01:19:07
  TRACK 73 AUDIO
    TITLE "0:"
    INDEX 01 01:21:04
  TRACK 74 AUDIO
    TITLE "10:cjc034_02430"
    INDEX 01 01:21:57
  TRACK 75 AUDIO
    TITLE "0:"
    INDEX 01 01:23:11
  TRACK 76 AUDIO
    TITLE "9:cjc034_02431"
    INDEX 01 01:23:20
  TRACK 77 AUDIO
    TITLE "0:"
    INDEX 01 01:24:28
  TRACK 78 AUDIO
    TITLE "10:cjc034_02432"
    INDEX 01 01:25:11
  TRACK 79 AUDIO
    TITLE "0:"
    INDEX 01 01:27:26
  TRACK 80 AUDIO
    TITLE "9:cjc034_02433"
    INDEX 01 01:27:28
  TRACK 81 AUDIO
    TITLE "0:"
    INDEX 01 01:28:43
